<?xml version="1.0" encoding="utf-8"?>
<!-- Generator: Adobe Illustrator 16.0.0, SVG Export Plug-In . SVG Version: 6.00 Build 0)  -->
<!DOCTYPE svg PUBLIC "-//W3C//DTD SVG 1.1//EN" "http://www.w3.org/Graphics/SVG/1.1/DTD/svg11.dtd">
<svg version="1.1" id="Layer_1" xmlns="http://www.w3.org/2000/svg" xmlns:xlink="http://www.w3.org/1999/xlink" x="0px" y="0px"
	 width="639.333px" height="100.667px" viewBox="46.363 95.566 639.333 100.667"
	 enable-background="new 46.363 95.566 639.333 100.667" xml:space="preserve">
<g id="Layer_x0020_1">
	<g id="_2541990380736">
		<polygon fill="#FEDA02" points="52.113,100.666 141.69,100.666 141.69,128.187 165.18,147.82 165.18,147.82 165.18,147.82 
			165.18,147.82 165.18,147.82 141.69,167.454 141.69,190.768 52.113,190.768 		"/>
		<path d="M52.115,104.52h28.478c22.124-1.972,38.291,12.931,38.132,32.461c-0.09,11.117-2.577,18.986-11.826,23.411l18.342,29.564
			H92.418c-3.942-6.315-7.884-12.631-11.827-18.947v18.947H52.113V104.52H52.115z M80.593,125.637v21.599
			c7.402,1.088,13.973-3.584,13.973-9.778C94.566,131.724,88.476,125.236,80.593,125.637z"/>
		<path fill="#FEDA02" d="M52.115,110.021H78.76c20.698-1.844,35.824,12.098,35.676,30.371c-0.083,10.4-2.409,17.763-11.064,21.904
			l17.162,27.659h-30.71c-3.688-5.908-7.377-11.818-11.065-17.727v17.727H52.113v-79.935H52.115z M78.76,129.779v20.208
			c6.924,1.018,13.073-3.354,13.073-9.148C91.832,135.474,86.135,129.403,78.76,129.779z"/>
		<path d="M52.115,111.854h26.032c20.224-1.802,35.003,11.82,34.857,29.673c-0.082,10.163-2.354,17.355-10.81,21.4l16.767,27.026
			H88.957c-3.603-5.772-7.207-11.547-10.811-17.321v17.321H52.113v-78.101L52.115,111.854L52.115,111.854z M78.148,131.159v19.745
			c6.765,0.994,12.773-3.276,12.773-8.939C90.922,136.723,85.354,130.792,78.148,131.159z"/>
	</g>
</g>
<text transform="matrix(0.7018 0 0 1 170.259 186.5342)" fill="#F9F4F4" font-family="'Dyuthi'" font-size="128.2237">MANGARAILS</text>
</svg>
