<?xml version="1.0" encoding="utf-8"?>
<!-- Generator: Adobe Illustrator 16.0.0, SVG Export Plug-In . SVG Version: 6.00 Build 0)  -->
<!DOCTYPE svg PUBLIC "-//W3C//DTD SVG 1.1//EN" "http://www.w3.org/Graphics/SVG/1.1/DTD/svg11.dtd">
<svg version="1.1" id="Layer_1" xmlns="http://www.w3.org/2000/svg" xmlns:xlink="http://www.w3.org/1999/xlink" x="0px" y="0px"
	 width="639.334px" height="100.667px" viewBox="0 0 639.334 100.667" enable-background="new 0 0 639.334 100.667"
	 xml:space="preserve">
<g id="Layer_x0020_1">
	<g id="_2541990380736">
		<polygon fill="#FEDA02" points="8.779,9.001 90.963,9.001 90.963,34.25 112.513,52.263 112.513,52.263 112.513,52.263 
			112.513,52.263 112.513,52.263 90.963,70.277 90.963,91.666 8.779,91.666 		"/>
		<path d="M8.782,12.537h26.127c20.297-1.809,35.13,11.865,34.985,29.783c-0.083,10.198-2.364,17.418-10.851,21.479l16.828,27.124
			H45.757c-3.615-5.795-7.232-11.589-10.85-17.384v17.384H8.779V12.537H8.782z M34.908,31.912v19.816
			c6.792,0.998,12.82-3.289,12.82-8.972C47.728,37.496,42.141,31.543,34.908,31.912z"/>
		<path fill="#FEDA02" d="M8.782,17.583h24.444c18.988-1.69,32.866,11.1,32.73,27.865c-0.076,9.541-2.209,16.297-10.15,20.097
			l15.746,25.376H43.376c-3.384-5.422-6.768-10.844-10.151-16.264v16.264H8.779V17.584L8.782,17.583L8.782,17.583z M33.226,35.712
			v18.54c6.353,0.934,11.994-3.077,11.994-8.394C45.22,40.936,39.993,35.367,33.226,35.712z"/>
		<path d="M8.782,19.266h23.883c18.556-1.653,32.114,10.845,31.98,27.224c-0.075,9.324-2.16,15.924-9.917,19.635L70.111,90.92
			H42.582c-3.306-5.296-6.611-10.595-9.918-15.892V90.92H8.779V19.266H8.782L8.782,19.266z M32.665,36.978v18.116
			c6.207,0.911,11.719-3.007,11.719-8.201C44.385,42.082,39.277,36.641,32.665,36.978z"/>
	</g>
</g>
<text transform="matrix(0.973 0 0 1 132.76 82.8315)" enable-background="new    "><tspan x="0" y="0" fill="#F9F4F4" font-family="'Dyuthi'" font-size="91.9344">MANGA</tspan><tspan x="301.121" y="0" fill="#FEDA02" font-family="'Dyuthi'" font-size="91.9344">RAILS</tspan></text>
</svg>
